<?xml version="1.0" encoding="UTF-8" standalone="no"?>
<!-- Created with Inkscape (http://www.inkscape.org/) -->

<svg
   width="210mm"
   height="297mm"
   viewBox="0 0 210 297"
   version="1.1"
   id="svg1"
   sodipodi:docname="logo.svg"
   inkscape:version="1.3 (0e150ed6c4, 2023-07-21)"
   inkscape:export-filename="logo.svg"
   inkscape:export-xdpi="96"
   inkscape:export-ydpi="96"
   xmlns:inkscape="http://www.inkscape.org/namespaces/inkscape"
   xmlns:sodipodi="http://sodipodi.sourceforge.net/DTD/sodipodi-0.dtd"
   xmlns="http://www.w3.org/2000/svg"
   xmlns:svg="http://www.w3.org/2000/svg">
  <sodipodi:namedview
     id="namedview1"
     pagecolor="#ffffff"
     bordercolor="#000000"
     borderopacity="0.25"
     inkscape:showpageshadow="2"
     inkscape:pageopacity="0.0"
     inkscape:pagecheckerboard="0"
     inkscape:deskcolor="#d1d1d1"
     inkscape:document-units="mm"
     showgrid="true"
     inkscape:zoom="0.7071068"
     inkscape:cx="270.11478"
     inkscape:cy="702.15702"
     inkscape:window-width="2449"
     inkscape:window-height="1560"
     inkscape:window-x="99"
     inkscape:window-y="-12"
     inkscape:window-maximized="1"
     inkscape:current-layer="g1">
    <inkscape:grid
       id="grid2"
       units="mm"
       originx="0"
       originy="0"
       spacingx="0.99999998"
       spacingy="1"
       empcolor="#0099e5"
       empopacity="0.30196078"
       color="#0099e5"
       opacity="0.14901961"
       empspacing="5"
       dotted="false"
       gridanglex="30"
       gridanglez="30"
       visible="true" />
  </sodipodi:namedview>
  <defs
     id="defs1" />
  <g
     inkscape:label="图层 1"
     inkscape:groupmode="layer"
     id="layer1" />
  <g
     id="g111"
     transform="matrix(1.1313696,0,0,1.1313708,-4.0632858,-4.1307583)">
    <g
       id="g1">
      <rect
         style="fill:#8fb2c9;fill-opacity:1;stroke-width:0.429776;opacity:0.3"
         id="rect2"
         width="121.82644"
         height="121.82636"
         x="-85.414009"
         y="-315.3201"
         transform="rotate(152.48341)" />
      <g
         id="g2"
         style="opacity:0.3">
        <path
           d="m 165.14653,132.14361 -0.0348,0.018 31.50112,60.4704 a 68.222763,68.222805 53.741706 0 1 -9.85307,4.18515 68.222763,68.222805 53.741706 0 1 -10.3866,2.59316 68.222763,68.222805 53.741706 0 1 -10.66473,0.93641 68.222763,68.222805 53.741706 0 1 -10.67937,-0.74384 68.222763,68.222805 53.741706 0 1 -10.43243,-2.40508 68.222763,68.222805 53.741706 0 1 -9.92677,-4.00767 68.222763,68.222805 53.741706 0 1 -9.17788,-5.51081 68.222763,68.222805 53.741706 0 1 -8.20292,-6.87932 68.222763,68.222805 53.741706 0 1 -7.0255,-8.07763 68.222763,68.222805 53.741706 0 1 -5.65492,-9.04259 l -47.507118,24.74814 a 121.82636,121.82644 53.741706 0 0 6.981513,11.74332 121.82636,121.82644 53.741706 0 0 4.583613,6.04822 l 19.216799,-14.75441 c 0.919075,1.27557 1.868914,2.52875 2.848626,3.75835 1.180871,1.38895 2.400662,2.744 3.657066,4.06403 1.256404,1.32004 2.549453,2.60505 3.878417,3.85301 0.348553,0.29654 0.699186,0.59065 1.051881,0.88225 l -16.400481,17.90853 a 121.82636,121.82644 53.741706 0 0 9.303785,7.80167 121.82636,121.82644 53.741706 0 0 7.481359,4.96234 l 13.04106,-20.48392 c 0.98933,0.68279 1.99123,1.34724 3.00515,1.99296 1.57327,0.92083 3.17157,1.79664 4.79337,2.62749 1.62179,0.83086 3.26706,1.6168 4.93351,2.3557 0.76701,0.30103 1.53783,0.59219 2.31224,0.87358 l -9.30369,22.47957 a 121.82636,121.82644 53.741706 0 0 10.0606,3.80079 121.82636,121.82644 53.741706 0 0 10.24435,2.60542 l 5.2623,-23.77276 c 0.74457,0.19893 1.49151,0.3889 2.24058,0.57018 1.7891,0.34953 3.58755,0.64917 5.39276,0.89775 1.80519,0.24857 3.61715,0.44606 5.43413,0.5931 1.25243,0.0551 2.50581,0.0861 3.75944,0.0929 l -1.05617,24.35573 a 121.82636,121.82644 53.741706 0 0 9.15459,0.22572 121.82636,121.82644 53.741706 0 0 12.04668,-1.05733 l -3.19411,-24.20628 c 0.36796,-0.0302 0.73575,-0.0625 1.10334,-0.097 1.80428,-0.26106 3.60034,-0.57307 5.38646,-0.93476 1.78611,-0.36168 3.56231,-0.77306 5.32601,-1.23453 1.5848,-0.46684 3.1575,-0.97389 4.71648,-1.5207 l 7.35259,23.29485 a 121.82636,121.82644 53.741706 0 0 7.26445,-2.34272 121.82636,121.82644 53.741706 0 0 12.45057,-5.6226 z"
           style="fill:#003f88;fill-opacity:1;stroke-width:0.429776"
           id="path69" />
        <path
           d="m 177.88307,199.24944 c -0.001,-0.095 -0.008,-0.62583 -0.0422,-1.7643 -0.0378,-1.23268 -0.10607,-3.02067 -0.22658,-5.2405 -0.0603,-1.10992 -0.1332,-2.32764 -0.22255,-3.63833 -0.0893,-1.31069 -0.19488,-2.71416 -0.31883,-4.1949 -0.12394,-1.48078 -0.26669,-3.0392 -0.43084,-4.65936 -0.16418,-1.62016 -0.34973,-3.30219 -0.55971,-5.03105 -0.21001,-1.72887 -0.44452,-3.50422 -0.70594,-5.31111 -0.26142,-1.80689 -0.54945,-3.64477 -0.86791,-5.49899 -0.31845,-1.85421 -0.66701,-3.72462 -1.04806,-5.59549 -0.38108,-1.87088 -0.79472,-3.74296 -1.244,-5.5998 -0.22461,-0.92842 -0.45801,-1.85256 -0.70074,-2.7717 -0.24274,-0.91917 -0.49468,-1.83282 -0.75622,-2.73887 -0.26154,-0.90606 -0.53259,-1.80512 -0.81362,-2.69425 -0.28105,-0.88912 -0.57198,-1.76872 -0.87322,-2.63708 -0.30124,-0.86835 -0.61313,-1.72547 -0.93527,-2.56921 -0.32214,-0.84375 -0.65474,-1.67404 -0.99847,-2.48935 -0.34375,-0.81529 -0.69839,-1.61495 -1.06441,-2.39795 -0.36486,-0.78048 -0.74104,-1.54471 -1.12874,-2.28931 l -20.41718,10.61184 c 0.46346,0.14944 0.91529,0.314 1.35037,0.49873 0.45576,0.19346 0.89598,0.40586 1.31803,0.63502 0.42211,0.229 0.82612,0.47467 1.212,0.73583 0.38589,0.26103 0.75277,0.53781 1.09986,0.82769 0.34709,0.28987 0.67492,0.59328 0.98069,0.90843 0.30575,0.31518 0.58954,0.64198 0.85142,0.979 0.26184,0.33702 0.50174,0.68457 0.71718,1.04004 0.21542,0.35548 0.40698,0.71873 0.57341,1.08923 0.16642,0.3705 0.30767,0.7479 0.42255,1.13001 0.11484,0.38213 0.20301,0.76918 0.26378,1.15948 0.0608,0.39028 0.0944,0.78385 0.0984,1.17889 0.005,0.39507 -0.0211,0.79195 -0.0762,1.18837 -0.0551,0.39643 -0.14034,0.79267 -0.25705,1.18703 -0.11745,0.39418 -0.26505,0.78629 -0.44612,1.17516 -0.18123,0.38883 -0.396,0.77439 -0.64402,1.15433 -0.24807,0.3799 -0.5296,0.75456 -0.8471,1.12215 -0.31748,0.36756 -0.67074,0.72792 -1.0602,1.07974 -0.38947,0.35181 -0.81508,0.69493 -1.27909,1.02759 -0.46402,0.33264 -0.96586,0.65457 -1.50698,0.96462 -0.54109,0.31006 -1.12173,0.60816 -1.74247,0.89221 -0.62075,0.28405 -1.28217,0.55412 -1.98513,0.80875 -0.70292,0.25459 -1.44767,0.49402 -2.23536,0.71576 -0.7877,0.22175 -1.61778,0.42627 -2.49278,0.61173 -0.87501,0.1855 -1.79455,0.35196 -2.75942,0.49773 -0.96486,0.14571 -1.97508,0.27023 -3.03237,0.3729 -1.05729,0.10266 -2.16179,0.18304 -3.31404,0.23916 -1.15225,0.0562 -2.35222,0.0884 -3.602,0.0945 -1.24979,0.007 -2.54914,-0.013 -3.899,-0.0607 -1.34985,-0.0473 -2.75082,-0.12231 -4.20331,-0.2264 -1.4525,-0.10396 -2.95683,-0.23699 -4.51451,-0.40123 -1.55768,-0.16422 -3.16818,-0.35952 -4.83361,-0.58738 -1.35921,-0.18596 -2.77974,-0.40849 -4.21229,-0.63891 a 68.578458,68.450865 17.47406 0 0 3.66826,6.15766 68.578458,68.450865 17.47406 0 0 4.64847,6.12111 68.578458,68.450865 17.47406 0 0 5.30433,5.56394 68.578458,68.450865 17.47406 0 0 5.89389,4.93638 68.578458,68.450865 17.47406 0 0 6.4101,4.24688 68.578458,68.450865 17.47406 0 0 6.84559,3.50457 68.578458,68.450865 17.47406 0 0 7.19444,2.71732 68.578458,68.450865 17.47406 0 0 7.4522,1.89607 68.578458,68.450865 17.47406 0 0 7.61832,1.0513 68.578458,68.450865 17.47406 0 0 7.68687,0.19337 68.578458,68.450865 17.47406 0 0 7.659,-0.66749 68.578458,68.450865 17.47406 0 0 3.02857,-0.61074 z"
           style="fill:#003f88;fill-opacity:1;stroke-width:0.16313"
           id="path12" />
        <path
           style="mix-blend-mode:normal;fill:#003f88;fill-opacity:1;stroke:none;stroke-width:0.0115471;stroke-dasharray:none;stroke-opacity:1;opacity:1"
           d="m 177.52825,199.33302 c -0.002,-0.032 -0.0218,-0.73665 -0.0435,-1.56601 -0.14002,-5.31577 -0.23227,-7.27531 -0.67307,-14.28603 -0.0768,-1.22091 -0.13303,-2.22335 -0.12507,-2.22765 0.008,-0.005 0.076,0.18795 0.1509,0.42704 0.37859,1.20753 0.72218,2.082 1.20943,3.07797 0.73359,1.49958 1.35358,2.47252 2.17575,3.41427 1.2585,1.44158 2.54166,2.45825 4.16529,3.30031 0.64021,0.33194 1.07848,0.50131 2.25345,0.87072 1.08494,0.34123 1.53155,0.45568 2.17554,0.55805 2.25675,0.35921 4.20014,0.3359 7.07862,-0.0848 0.34451,-0.0504 0.63745,-0.0835 0.65086,-0.0736 0.0624,0.0463 -2.93668,1.45149 -4.64019,2.17428 -3.67524,1.55938 -7.14023,2.71549 -11.30979,3.77361 -1.18092,0.29969 -2.99771,0.72095 -3.04501,0.70606 -0.01,-0.003 -0.0211,-0.0322 -0.0231,-0.0642 z"
           id="path30" />
      </g>
      <ellipse
         style="fill:#8fb2c9;fill-opacity:1;stroke:none;stroke-width:0.162435;stroke-dasharray:none;stroke-opacity:1"
         id="path71"
         cx="193.06706"
         cy="88.563072"
         rx="0.81217587"
         ry="0.81217611"
         transform="rotate(17.483394)" />
    </g>
  </g>
</svg>
